<?xml version="1.0" encoding="UTF-8"?>
<svg id="Layer_1" data-name="Layer 1" xmlns="http://www.w3.org/2000/svg" viewBox="0 0 422.66 1080">
  <defs>
    <style>
      .cls-1 {
        fill: #3d200a;
      }
    </style>
  </defs>
  <path class="cls-1" d="M333.04,79.59c4.99,7.63,13.31,11.78,21.8,11.78,4.88,0,9.82-1.37,14.21-4.24,17.85-11.67,35.72-21.73,53.61-30.26V0c-27.54,11.33-54.9,25.81-82.08,43.58-12.02,7.86-15.4,23.98-7.54,36.01Z"/>
  <path class="cls-1" d="M36.92,320.65c.98.11,1.94.16,2.9.16,13.08,0,24.34-9.84,25.82-23.14.98-8.81,1.72-14.28,2.23-16.41h0c.13-.5.25-1.01.36-1.52.29-1.43.95-3.14,1.97-5.14,6.53-12.79,1.46-28.46-11.34-35-3.79-1.93-7.83-2.85-11.81-2.85-9.46,0-18.59,5.18-23.19,14.19-3.15,6.16-5.34,12.25-6.58,18.26h-.02c-1,4.21-2.11,11.79-3.33,22.73-1.59,14.28,8.7,27.14,22.98,28.72Z"/>
  <path class="cls-1" d="M8.62,717.37c4.97,4.47,11.19,6.67,17.38,6.67,7.12,0,14.22-2.91,19.36-8.62,13-14.47,26.9-22.02,41.7-22.66h.1c1-.05,2.01-.07,3.02-.07,8.59,0,17.67,1.68,27.24,5.03.35.12.69.24,1.05.34,5.25,1.59,10.66,5.35,16.25,11.27,5.12,5.42,12.01,8.16,18.92,8.16,6.41,0,12.82-2.35,17.85-7.1,10.45-9.86,10.92-26.32,1.06-36.77-11.81-12.52-24.69-20.93-38.62-25.23h.02c-14.91-5.15-29.49-7.72-43.74-7.72-1.8,0-3.6.04-5.39.12h0c-29.35,1.26-55.41,14.55-78.15,39.86-9.6,10.68-8.73,27.13,1.96,36.73Z"/>
  <path class="cls-1" d="M418.92,279.62c-10.93,9.32-12.24,25.74-2.92,36.67,1.95,2.28,4.2,4.14,6.65,5.58v-45.31c-1.25,1.02-2.53,2.03-3.73,3.06Z"/>
  <path class="cls-1" d="M378.58,210.93c4.96,7.77,13.36,12.01,21.94,12.01,4.79,0,9.64-1.32,13.98-4.1,2.74-1.75,5.45-3.44,8.15-5.11v-60.19c-11.82,6.48-23.87,13.6-36.16,21.45-12.11,7.73-15.65,23.82-7.92,35.92Z"/>
  <path class="cls-1" d="M400.22,1079.24c2.09.52,4.18.76,6.25.76,5.98,0,11.66-2.1,16.19-5.71v-145.52c-18.24,41.18-32.07,80.84-41.47,118.99-3.44,13.95,5.08,28.04,19.03,31.48Z"/>
  <path class="cls-1" d="M392.97,397.08c-8.17,11.82-5.22,28.02,6.6,36.19,4.51,3.12,9.67,4.62,14.77,4.62,2.83,0,5.64-.49,8.32-1.39v-74.28c-11.16,10.8-21.07,22.41-29.69,34.87Z"/>
  <path class="cls-1" d="M389.87,562.77c-4.91,4.01-9.75,8.72-14.51,14.12h0c-7.46,8.21-21.47,25-42.04,50.36-.16.19-.31.38-.46.58-42.04,54.95-65.8,85.46-71.28,91.55h.02c-10.03,9.46-10.96,25.23-1.9,35.82,5.14,6.01,12.44,9.1,19.78,9.1,5.98,0,12-2.05,16.9-6.25.92-.79,1.87-1.71,2.86-2.77h0c5.92-6.34,30.9-38.29,74.94-95.85h.01c19.69-24.27,32.91-40.13,39.67-47.56l.3-.33c2.92-3.33,5.75-6.11,8.49-8.37v-40.49c-4.71-3.81-10.5-5.79-16.34-5.79s-11.62,1.92-16.45,5.87Z"/>
  <path class="cls-1" d="M337.72,1012.88c2.63.84,5.28,1.23,7.9,1.23,11.02,0,21.26-7.06,24.78-18.13,14.74-46.3,30.72-87.4,47.94-123.32,6.21-12.95.74-28.49-12.21-34.7-3.63-1.74-7.46-2.56-11.23-2.56-9.7,0-19,5.45-23.47,14.77-18.26,38.08-35.12,81.42-50.6,130.02-4.36,13.69,3.2,28.32,16.89,32.68Z"/>
  <path class="cls-1" d="M374.68,300.97c-.57-.04-1.14-.05-1.7-.05-13.6,0-25.04,10.57-25.93,24.34-1.28,19.92-13.16,47.23-35.62,81.91h0c-8.26,12.48-17.96,25.67-29.08,39.58h0s-125.82,154.42-125.82,154.42c-9.07,11.14-7.4,27.52,3.74,36.6,4.83,3.93,10.64,5.85,16.42,5.85,7.55,0,15.04-3.27,20.18-9.58l125.81-154.42.14-.18c12.16-15.19,22.82-29.71,31.98-43.54l.14-.21c27.48-42.38,42.15-78.08,44.02-107.08.92-14.34-9.95-26.71-24.28-27.63Z"/>
  <path class="cls-1" d="M81.75,240.34c.64.38,1.29.74,1.96,1.07,3.44,1.68,6.92,2.98,10.45,3.9h0c4.24,1.1,8.45,1.66,12.61,1.66,6.48,0,12.86-1.34,19.15-4.02h0c1.07-.46,2.13-.95,3.18-1.48,1.61-.82,3.13-1.8,4.54-2.93,1.83-1.47,3.53-3.02,5.09-4.63h0c10.65-11.01,14.8-23.97,12.46-38.88-2.02-12.82-13.08-21.97-25.66-21.97-1.35,0-2.71.1-4.08.32-8.46,1.33-15.33,6.61-19.01,13.66h-.02c-.93-3.29-1.27-7.33-1.02-12.12h.02c1.57-14.36,7.14-27.99,16.69-40.91h.01c4.6-5.81,9.03-8.72,13.29-8.72.16,0,.33,0,.49.01.46.02.92.04,1.38.04,13.74,0,25.23-10.77,25.95-24.65.75-14.35-10.27-26.58-24.62-27.34-1.23-.06-2.45-.1-3.65-.1-21.09,0-39.21,9.79-54.35,29.38-.11.15-.23.29-.33.44-15.46,20.9-24.37,43.47-26.74,67.7-.03.36-.06.72-.08,1.08-1.77,31.65,9,54.48,32.3,68.48Z"/>
  <path class="cls-1" d="M193.51,319.16c6.72,18.49,16.34,32.85,28.88,43.1l.29.23c15.4,12.24,30.39,18.38,44.96,18.44h0c.07,0,.14,0,.21,0,2.71,0,5.39-.21,8.03-.64h0c8.17-1.26,15.62-4.75,22.34-10.5h0c7.66-6.55,14.19-16.08,19.6-28.6.09-.21.18-.43.27-.64,6.71-16.76,7.32-33.99,1.83-51.68-3.46-11.15-13.74-18.31-24.84-18.31-2.55,0-5.15.38-7.71,1.17-13.72,4.26-21.39,18.83-17.14,32.55,1.77,5.72,1.71,11.15-.2,16.31h.02c-1.55,3.58-2.93,6.23-4.15,7.95h-.02c-2.58-.83-6.2-3.1-10.86-6.8h0c-4.94-4.16-9.09-10.79-12.46-19.89h.02c-4.04-14.11-3.8-25,.72-32.69h0c9.13-14.88,19.61-24.52,31.46-28.93h.02c5.69-1.63,11.18-2.45,16.44-2.45,8.05,0,15.6,1.9,22.67,5.71h0c15.29,8.68,25.15,20.45,29.58,35.3,3.37,11.29,13.71,18.58,24.92,18.58,2.46,0,4.97-.35,7.45-1.09,13.77-4.11,21.6-18.6,17.49-32.36-8.42-28.21-26.33-50.1-53.75-65.67l-.33-.18c-15.12-8.3-31-12.45-47.63-12.45-10.53,0-21.36,1.66-32.49,4.99-.44.13-.88.27-1.31.43-23.74,8.48-43.46,25.61-59.17,51.41l-.2.34c-12.27,20.87-14.09,45.83-5.45,74.88.15.49.31.98.49,1.47Z"/>
  <path class="cls-1" d="M397.21,821.68c5.1,5.29,11.91,7.95,18.72,7.95,2.26,0,4.52-.31,6.73-.9v-71.58c-11.66,13.8-19.94,23.06-24.79,27.75-10.34,9.98-10.63,26.44-.65,36.78Z"/>
  <path class="cls-1" d="M295.18,918.63c3.51,1.6,7.18,2.36,10.8,2.36,9.87,0,19.3-5.64,23.67-15.2,3.89-8.5,7.48-16.11,10.78-22.81,6.34-12.89,1.03-28.48-11.86-34.82-3.69-1.82-7.61-2.68-11.46-2.68-9.6,0-18.83,5.34-23.36,14.53-3.52,7.15-7.32,15.2-11.41,24.14-5.97,13.06-.23,28.5,12.84,34.47Z"/>
  <path class="cls-1" d="M84.63,587.15c-9.33,10.92-8.04,27.34,2.89,36.67,4.9,4.18,10.9,6.23,16.88,6.23,7.35,0,14.65-3.1,19.79-9.12,32.58-38.15,65.11-78.29,97.6-120.43.11-.14.21-.28.31-.41,18.83-25.46,34.84-51.43,48.03-77.92,6.41-12.86,1.17-28.48-11.69-34.88-3.72-1.86-7.68-2.73-11.58-2.73-9.56,0-18.75,5.29-23.3,14.42-11.77,23.63-26.1,46.88-42.99,69.76h0c-31.96,41.45-63.95,80.93-95.96,118.41Z"/>
  <path class="cls-1" d="M319.14,751.94c-14.92,16.69-27.39,28.92-37.4,36.7h.02c-5.25,3.56-10.31,5.35-15.16,5.35-8.14,0-15.71-5.02-22.71-15.05h.02c-15.59-27.29-13.85-58.28,5.2-92.96h.02c50.53-74.2,102.37-135.4,155.52-183.59,10.64-9.65,11.45-26.1,1.8-36.74-5.13-5.66-12.19-8.54-19.28-8.54-6.23,0-12.48,2.23-17.46,6.74-56.49,51.21-111.28,115.89-164.38,194.02-.43.64-.84,1.3-1.22,1.97-29.35,52.76-30.85,101.55-4.51,146.38.3.52.63,1.02.96,1.52.12.17.24.36.38.55h0c18.69,27.04,39.53,40.55,62.49,40.55,15.15,0,31.23-5.88,48.24-17.64.34-.24.68-.48,1.01-.73,12.78-9.78,27.94-24.49,45.48-44.12l.23-.26,64.25-73.9v-79.29l-103.51,119.06h0Z"/>
  <path class="cls-1" d="M321.54,175.39c5.14,6.23,12.58,9.45,20.07,9.45,5.83,0,11.7-1.95,16.55-5.96,17.91-14.79,39.43-28.18,64.5-40.17v-56.87c-38.69,16.21-71.29,35.16-97.63,56.93-11.08,9.15-12.64,25.55-3.49,36.62Z"/>
</svg>